<svg width="41" height="40" viewBox="0 0 41 40" fill="none" xmlns="http://www.w3.org/2000/svg">
<rect x="0.235962" width="40" height="40" rx="20" fill="#404040"/>
<path d="M13.736 16.125C13.4547 16.125 13.236 15.9062 13.236 15.625V14.375C13.236 14.125 13.4547 13.875 13.736 13.875H26.736C26.986 13.875 27.236 14.125 27.236 14.375V15.625C27.236 15.9062 26.986 16.125 26.736 16.125H13.736ZM13.736 21.125C13.4547 21.125 13.236 20.9062 13.236 20.625V19.375C13.236 19.125 13.4547 18.875 13.736 18.875H26.736C26.986 18.875 27.236 19.125 27.236 19.375V20.625C27.236 20.9062 26.986 21.125 26.736 21.125H13.736ZM13.736 26.125C13.4547 26.125 13.236 25.9062 13.236 25.625V24.375C13.236 24.125 13.4547 23.875 13.736 23.875H26.736C26.986 23.875 27.236 24.125 27.236 24.375V25.625C27.236 25.9062 26.986 26.125 26.736 26.125H13.736Z" fill="#FEFEFE"/>
<a href="https://www.figma.com/design/kWsYmLFPz3cDHH9jyxg9PG/team-KoBo?node-id=1-2">
<rect fill="black" fill-opacity="0" y="-1.2" width="14" height="18.4"/>
</a>
</svg>
