<svg xmlns="http://www.w3.org/2000/svg" xmlns:xlink="http://www.w3.org/1999/xlink" width="500" zoomAndPan="magnify" viewBox="0 0 375 374.999991" height="500" preserveAspectRatio="xMidYMid meet" version="1.0"><defs><g/><clipPath id="4ad8f2edc2"><path d="M 37.5 37.5 L 337.5 37.5 L 337.5 337.5 L 37.5 337.5 Z M 37.5 37.5 " clip-rule="nonzero"/></clipPath><clipPath id="bfa4a1816e"><path d="M 187.5 37.5 C 104.65625 37.5 37.5 104.65625 37.5 187.5 C 37.5 270.34375 104.65625 337.5 187.5 337.5 C 270.34375 337.5 337.5 270.34375 337.5 187.5 C 337.5 104.65625 270.34375 37.5 187.5 37.5 Z M 187.5 37.5 " clip-rule="nonzero"/></clipPath><clipPath id="bbec259d55"><path d="M 281.074219 221.992188 L 294.421875 221.992188 L 294.421875 235.324219 L 281.074219 235.324219 Z M 281.074219 221.992188 " clip-rule="nonzero"/></clipPath></defs><g clip-path="url(#4ad8f2edc2)"><g clip-path="url(#bfa4a1816e)"><path fill="#3e703d" d="M 37.5 37.5 L 337.5 37.5 L 337.5 337.5 L 37.5 337.5 Z M 37.5 37.5 " fill-opacity="1" fill-rule="nonzero"/></g></g><g fill="#ffffff" fill-opacity="1"><g transform="translate(80.611178, 239.400325)"><g><path d="M 62.8125 -109.390625 C 78.757812 -109.390625 91.367188 -105.40625 100.640625 -97.4375 C 109.910156 -89.46875 114.546875 -78.082031 114.546875 -63.28125 L 81.578125 -63.28125 C 81.578125 -69.53125 79.929688 -74.476562 76.640625 -78.125 C 73.359375 -81.78125 68.695312 -83.609375 62.65625 -83.609375 C 55.675781 -83.609375 50.546875 -81.414062 47.265625 -77.03125 C 43.984375 -72.65625 42.34375 -66.5625 42.34375 -58.75 L 42.34375 -48.75 C 42.34375 -41.039062 43.984375 -34.972656 47.265625 -30.546875 C 50.546875 -26.117188 55.570312 -23.90625 62.34375 -23.90625 C 69.007812 -23.90625 74.0625 -25.625 77.5 -29.0625 C 80.945312 -32.5 82.671875 -37.34375 82.671875 -43.59375 L 114.546875 -43.59375 C 114.546875 -28.90625 110.039062 -17.65625 101.03125 -9.84375 C 92.019531 -2.03125 79.28125 1.875 62.8125 1.875 C 44.476562 1.875 30.597656 -2.8125 21.171875 -12.1875 C 11.742188 -21.5625 7.03125 -35.414062 7.03125 -53.75 C 7.03125 -72.09375 11.742188 -85.953125 21.171875 -95.328125 C 30.597656 -104.703125 44.476562 -109.390625 62.8125 -109.390625 Z M 62.8125 -109.390625 "/></g></g></g><path stroke-linecap="butt" transform="matrix(0.494289, 0, 0, 0.494289, 119.961465, 78.262113)" fill="none" stroke-linejoin="miter" d="M 229.724425 104.718748 C 267.23095 104.718748 296.202488 114.312705 316.631137 133.508523 C 337.107202 152.649021 347.349187 180.561588 347.349187 217.246226 C 347.349187 253.938766 337.107202 281.875042 316.631137 301.07086 C 296.202488 320.211358 267.23095 329.781607 229.724425 329.781607 C 192.209997 329.781607 163.270069 320.266677 142.888837 301.221012 C 122.570827 282.135834 112.40787 254.144238 112.40787 217.246226 C 112.40787 180.356117 122.570827 152.388229 142.888837 133.350467 C 163.270069 114.265289 192.209997 104.718748 229.724425 104.718748 Z M 229.724425 156.892806 C 214.748684 156.892806 203.352896 161.42109 195.529158 170.47766 C 187.76074 179.534229 183.872579 191.751904 183.872579 207.138589 L 183.872579 227.361766 C 183.872579 242.74845 187.76074 254.966126 195.529158 264.022695 C 203.352896 273.079264 214.748684 277.607549 229.724425 277.607549 C 244.692262 277.607549 256.119661 273.079264 263.990816 264.022695 C 271.91729 254.966126 275.876575 242.74845 275.876575 227.361766 L 275.876575 207.138589 C 275.876575 191.751904 271.91729 179.534229 263.990816 170.47766 C 256.119661 161.42109 244.692262 156.892806 229.724425 156.892806 Z M 229.724425 156.892806 " stroke="#3e703d" stroke-width="45.050236" stroke-opacity="1" stroke-miterlimit="4"/><g fill="#ffffff" fill-opacity="1"><g transform="translate(168.502188, 239.400325)"><g><path d="M 65 -109.390625 C 83.550781 -109.390625 97.878906 -104.648438 107.984375 -95.171875 C 118.085938 -85.691406 123.140625 -71.882812 123.140625 -53.75 C 123.140625 -35.625 118.085938 -21.820312 107.984375 -12.34375 C 97.878906 -2.863281 83.550781 1.875 65 1.875 C 46.457031 1.875 32.160156 -2.835938 22.109375 -12.265625 C 12.054688 -21.691406 7.03125 -35.519531 7.03125 -53.75 C 7.03125 -71.988281 12.054688 -85.820312 22.109375 -95.25 C 32.160156 -104.675781 46.457031 -109.390625 65 -109.390625 Z M 65 -83.609375 C 57.601562 -83.609375 51.976562 -81.363281 48.125 -76.875 C 44.269531 -72.394531 42.34375 -66.351562 42.34375 -58.75 L 42.34375 -48.75 C 42.34375 -41.144531 44.269531 -35.101562 48.125 -30.625 C 51.976562 -26.144531 57.601562 -23.90625 65 -23.90625 C 72.394531 -23.90625 78.046875 -26.144531 81.953125 -30.625 C 85.867188 -35.101562 87.828125 -41.144531 87.828125 -48.75 L 87.828125 -58.75 C 87.828125 -66.351562 85.867188 -72.394531 81.953125 -76.875 C 78.046875 -81.363281 72.394531 -83.609375 65 -83.609375 Z M 65 -83.609375 "/></g></g></g><g clip-path="url(#bbec259d55)"><path fill="#ffffff" d="M 281.074219 221.992188 L 294.40625 221.992188 L 294.40625 235.324219 L 281.074219 235.324219 Z M 281.074219 221.992188 " fill-opacity="1" fill-rule="nonzero"/></g><g fill="#ffffff" fill-opacity="1"><g transform="translate(145.205342, 265.444142)"><g><path d="M 11.453125 0 L 9.265625 -7.640625 L 7.078125 0 L 3.640625 0 L -0.25 -13.625 L 3.203125 -13.625 L 5.53125 -4.28125 L 5.609375 -4.28125 L 8.09375 -13.625 L 10.4375 -13.625 L 12.921875 -4.28125 L 13 -4.28125 L 15.328125 -13.625 L 18.765625 -13.625 L 14.875 0 Z M 11.453125 0 "/></g></g></g><g fill="#ffffff" fill-opacity="1"><g transform="translate(164.78897, 265.444142)"><g><path d="M 0.375 -6.828125 C 0.375 -8.796875 1.046875 -10.460938 2.390625 -11.828125 C 3.734375 -13.191406 5.351562 -13.875 7.25 -13.875 C 9.15625 -13.875 10.773438 -13.191406 12.109375 -11.828125 C 13.441406 -10.472656 14.109375 -8.804688 14.109375 -6.828125 C 14.109375 -4.828125 13.453125 -3.144531 12.140625 -1.78125 C 10.828125 -0.425781 9.195312 0.25 7.25 0.25 C 5.257812 0.25 3.613281 -0.421875 2.3125 -1.765625 C 1.019531 -3.117188 0.375 -4.804688 0.375 -6.828125 Z M 3.734375 -6.828125 C 3.734375 -6.109375 3.84375 -5.453125 4.0625 -4.859375 C 4.28125 -4.273438 4.664062 -3.78125 5.21875 -3.375 C 5.769531 -2.96875 6.445312 -2.765625 7.25 -2.765625 C 8.40625 -2.765625 9.273438 -3.160156 9.859375 -3.953125 C 10.453125 -4.742188 10.75 -5.703125 10.75 -6.828125 C 10.75 -7.929688 10.445312 -8.882812 9.84375 -9.6875 C 9.25 -10.488281 8.382812 -10.890625 7.25 -10.890625 C 6.125 -10.890625 5.253906 -10.488281 4.640625 -9.6875 C 4.035156 -8.882812 3.734375 -7.929688 3.734375 -6.828125 Z M 3.734375 -6.828125 "/></g></g></g><g fill="#ffffff" fill-opacity="1"><g transform="translate(180.343752, 265.444142)"><g><path d="M 0.984375 -13.625 L 5.859375 -13.625 C 7.171875 -13.625 8.238281 -13.273438 9.0625 -12.578125 C 9.894531 -11.878906 10.3125 -10.878906 10.3125 -9.578125 C 10.3125 -8.578125 10.054688 -7.738281 9.546875 -7.0625 C 9.046875 -6.382812 8.367188 -5.90625 7.515625 -5.625 L 12.203125 0 L 8.265625 0 L 4.09375 -5.390625 L 4.09375 0 L 0.984375 0 Z M 4.09375 -7.578125 L 4.453125 -7.578125 C 4.742188 -7.578125 4.988281 -7.582031 5.1875 -7.59375 C 5.382812 -7.601562 5.609375 -7.640625 5.859375 -7.703125 C 6.117188 -7.773438 6.320312 -7.867188 6.46875 -7.984375 C 6.625 -8.109375 6.753906 -8.285156 6.859375 -8.515625 C 6.972656 -8.753906 7.03125 -9.035156 7.03125 -9.359375 C 7.03125 -9.691406 6.972656 -9.972656 6.859375 -10.203125 C 6.753906 -10.429688 6.625 -10.609375 6.46875 -10.734375 C 6.320312 -10.859375 6.117188 -10.953125 5.859375 -11.015625 C 5.609375 -11.078125 5.382812 -11.113281 5.1875 -11.125 C 4.988281 -11.132812 4.742188 -11.140625 4.453125 -11.140625 L 4.09375 -11.140625 Z M 4.09375 -7.578125 "/></g></g></g><g fill="#ffffff" fill-opacity="1"><g transform="translate(193.240152, 265.444142)"><g><path d="M 13.390625 0 L 9.109375 0 L 4.09375 -5.78125 L 4.09375 0 L 0.984375 0 L 0.984375 -13.625 L 4.09375 -13.625 L 4.09375 -8.0625 L 8.765625 -13.625 L 12.53125 -13.625 L 7.046875 -7.171875 Z M 13.390625 0 "/></g></g></g><g fill="#ffffff" fill-opacity="1"><g transform="translate(207.308871, 265.444142)"><g><path d="M 8.78125 -13.625 L 8.78125 -10.90625 L 4.09375 -10.90625 L 4.09375 -8.1875 L 8.59375 -8.1875 L 8.59375 -5.46875 L 4.09375 -5.46875 L 4.09375 -2.71875 L 8.78125 -2.71875 L 8.78125 0 L 0.984375 0 L 0.984375 -13.625 Z M 8.78125 -13.625 "/></g></g></g><g fill="#ffffff" fill-opacity="1"><g transform="translate(217.959675, 265.444142)"><g><path d="M 0.984375 -13.625 L 5.859375 -13.625 C 7.171875 -13.625 8.238281 -13.273438 9.0625 -12.578125 C 9.894531 -11.878906 10.3125 -10.878906 10.3125 -9.578125 C 10.3125 -8.578125 10.054688 -7.738281 9.546875 -7.0625 C 9.046875 -6.382812 8.367188 -5.90625 7.515625 -5.625 L 12.203125 0 L 8.265625 0 L 4.09375 -5.390625 L 4.09375 0 L 0.984375 0 Z M 4.09375 -7.578125 L 4.453125 -7.578125 C 4.742188 -7.578125 4.988281 -7.582031 5.1875 -7.59375 C 5.382812 -7.601562 5.609375 -7.640625 5.859375 -7.703125 C 6.117188 -7.773438 6.320312 -7.867188 6.46875 -7.984375 C 6.625 -8.109375 6.753906 -8.285156 6.859375 -8.515625 C 6.972656 -8.753906 7.03125 -9.035156 7.03125 -9.359375 C 7.03125 -9.691406 6.972656 -9.972656 6.859375 -10.203125 C 6.753906 -10.429688 6.625 -10.609375 6.46875 -10.734375 C 6.320312 -10.859375 6.117188 -10.953125 5.859375 -11.015625 C 5.609375 -11.078125 5.382812 -11.113281 5.1875 -11.125 C 4.988281 -11.132812 4.742188 -11.140625 4.453125 -11.140625 L 4.09375 -11.140625 Z M 4.09375 -7.578125 "/></g></g></g></svg>